<svg xmlns="http://www.w3.org/2000/svg" version="1.1" xmlns:xlink="http://www.w3.org/1999/xlink" xmlns:svgjs="http://svgjs.dev/svgjs" width="100%" height="100%" viewBox="0 0 1000 600"><rect width="1000" height="600" x="0" y="0" fill="black"/><g><rect width="333.3333333333333" height="333.3333333333333" rx="13.333333333333334" ry="13.333333333333334" y="211.46930792665484" fill="#ffb703" transform="matrix(0.6605122065751926,0,0,0.6605122065751927,0,50.23658356967913)" x="189.2470703125"/><path d="M325.04766105072423 453.13598198785616L325.04766105072423 453.13598198785616Q309.3033331699944 453.13598198785616 295.9386400831886 447.8509791315831Q282.60161716840526 442.59364644733233 272.8340464445078 433.01976692759155Q263.0664757206104 423.44588740785076 257.5877816601807 410.4962469013805Q252.109087599751 397.5466063949104 252.109087599751 382.21733109451606L252.109087599751 382.21733109451606Q252.109087599751 366.88805579412184 257.5877816601807 353.9384152876517Q263.0664757206104 340.98877478118146 272.94472713259734 331.4148952614407Q282.79530837256186 321.8410157416999 296.1600014593676 316.58368305744915Q309.497024374151 311.29868020117607 325.2413522548809 311.29868020117607L325.2413522548809 311.29868020117607Q340.3769363511185 311.29868020117607 353.71395926590185 316.3623216812702Q367.07865235270765 321.4536333333867 376.2374792921129 331.6085864655973L376.2374792921129 331.6085864655973L366.88496114855104 340.98877478118146Q358.30720782161563 332.21733025008945 347.9585634852484 328.31583599493496Q337.58224897685886 324.4420119118029 325.62873466319405 324.4420119118029L325.62873466319405 324.4420119118029Q313.0941467370594 324.4420119118029 302.33044982035665 328.73088857527057Q291.5667529036538 333.0197652387383 283.59774336121063 340.878094093092Q275.6287338187674 348.73642294744565 271.1461659511431 359.19574797190234Q266.6635980835188 369.65507299635914 266.6635980835188 382.21733109451606L266.6635980835188 382.21733109451606Q266.6635980835188 394.7795891926731 271.1461659511431 405.2389142171298Q275.6287338187674 415.69823924158646 283.59774336121063 423.55656809594024Q291.5667529036538 431.4148969502939 302.33044982035665 435.7037736137616Q313.0941467370594 439.9926502772293 325.62873466319405 439.9926502772293L325.62873466319405 439.9926502772293Q337.58224897685886 439.9926502772293 347.9585634852484 436.0081455060077Q358.30720782161563 432.02364073478617 366.88496114855104 423.25219620369415L366.88496114855104 423.25219620369415L376.2374792921129 432.63238451927833Q367.07865235270765 442.78733765148894 353.71395926590185 447.96165981967255Q340.3769363511185 453.13598198785616 325.04766105072423 453.13598198785616ZM421.2568491725125 451.94616459089417L407.11739126908026 451.94616459089417L407.11739126908026 334.2095826357003Q407.11739126908026 320.2638159364247 415.2800920156801 311.6860626094893Q423.4427927622799 303.1359794545763 438.7997382346965 303.1359794545763L438.7997382346965 303.1359794545763Q444.7764953915289 303.1359794545763 450.3381999680257 304.7131792598515Q455.9275747165449 306.318049237149 459.7183882836099 309.6938102238785L459.7183882836099 309.6938102238785L454.9314485237395 320.2638159364247Q451.94306994532326 317.66281976632166 447.95856517410175 316.3623216812702Q443.9740604028801 315.0894937682411 439.38081184716634 315.0894937682411L439.38081184716634 315.0894937682411Q430.4156761119177 315.0894937682411 425.65640652406967 320.0701247322681Q420.86946676419933 325.0507556962951 420.86946676419933 334.79065624817L420.86946676419933 334.79065624817L420.86946676419933 350.7286753330565L421.2568491725125 357.31417627438105L421.2568491725125 451.94616459089417ZM453.13288734228536 359.1127374558353L388.3846848099343 359.1127374558353L388.3846848099343 347.35291434632705L453.13288734228536 347.35291434632705L453.13288734228536 359.1127374558353Z " fill="black" transform="matrix(0.6605122065751926,0,0,0.6605122065751927,0,50.23658356967913)"/><path d="M678.8523104037515 453.13598198785616L678.8523104037515 453.13598198785616Q663.1079825230217 453.13598198785616 649.743289436216 447.8509791315831Q636.4062665214325 442.59364644733233 626.6386957975351 433.01976692759155Q616.8711250736377 423.44588740785076 611.392431013208 410.4962469013805Q605.9137369527783 397.5466063949104 605.9137369527783 382.21733109451606L605.9137369527783 382.21733109451606Q605.9137369527783 366.88805579412184 611.392431013208 353.9384152876517Q616.8711250736377 340.98877478118146 626.7493764856246 331.4148952614407Q636.5999577255891 321.8410157416999 649.9646508123949 316.58368305744915Q663.3016737271782 311.29868020117607 679.0460016079081 311.29868020117607L679.0460016079081 311.29868020117607Q694.1815857041457 311.29868020117607 707.5186086189292 316.3623216812702Q720.883301705735 321.4536333333867 730.0421286451401 331.6085864655973L730.0421286451401 331.6085864655973L720.6896105015783 340.98877478118146Q712.111857174643 332.21733025008945 701.7632128382758 328.31583599493496Q691.3868983298862 324.4420119118029 679.4333840162213 324.4420119118029L679.4333840162213 324.4420119118029Q666.8987960900868 324.4420119118029 656.1350991733839 328.73088857527057Q645.3714022566811 333.0197652387383 637.402392714238 340.878094093092Q629.4333831717947 348.73642294744565 624.9508153041704 359.19574797190234Q620.4682474365461 369.65507299635914 620.4682474365461 382.21733109451606L620.4682474365461 382.21733109451606Q620.4682474365461 394.7795891926731 624.9508153041704 405.2389142171298Q629.4333831717947 415.69823924158646 637.402392714238 423.55656809594024Q645.3714022566811 431.4148969502939 656.1350991733839 435.7037736137616Q666.8987960900868 439.9926502772293 679.4333840162213 439.9926502772293L679.4333840162213 439.9926502772293Q691.3868983298862 439.9926502772293 701.7632128382758 436.0081455060077Q712.111857174643 432.02364073478617 720.6896105015783 423.25219620369415L720.6896105015783 423.25219620369415L730.0421286451401 432.63238451927833Q720.883301705735 442.78733765148894 707.5186086189292 447.96165981967255Q694.1815857041457 453.13598198785616 678.8523104037515 453.13598198785616ZM772.6818637316157 451.94616459089417L758.5424058281835 451.94616459089417L758.5424058281835 347.35291434632705L772.6818637316157 347.35291434632705L772.6818637316157 451.94616459089417ZM765.708980381978 324.2483207076463L765.708980381978 324.2483207076463Q761.3094230304208 324.2483207076463 758.3210444520046 321.25994212923007Q755.3326658735884 318.2715635508138 755.3326658735884 314.09336757543565L755.3326658735884 314.09336757543565Q755.3326658735884 309.8875014280351 758.3210444520046 307.0098035377083Q761.3094230304208 304.13210564738165 765.708980381978 304.13210564738165L765.708980381978 304.13210564738165Q770.0808675615128 304.13210564738165 773.069246139929 306.89912284961883Q776.0576247183452 309.6938102238785 776.0576247183452 313.87200619925665L776.0576247183452 313.87200619925665Q776.0576247183452 318.2715635508138 773.1799268280184 321.25994212923007Q770.2745587656693 324.2483207076463 765.708980381978 324.2483207076463ZM865.5152908666746 346.3567881535217L865.5152908666746 346.3567881535217Q878.2712401689882 346.3567881535217 887.9281302047962 351.2267384294592Q897.5850202406041 356.12435887741907 903.0637143010338 366.08562080547307Q908.5424083614635 376.04688273352707 908.5424083614635 391.1824668297647L908.5424083614635 391.1824668297647L908.5424083614635 451.94616459089417L894.4029504580312 451.94616459089417L894.4029504580312 392.56597543088327Q894.4029504580312 376.04688273352707 886.1295690233419 367.57981009468125Q877.8561875886526 359.1127374558353 862.9142946965717 359.1127374558353L862.9142946965717 359.1127374558353Q851.7632153715556 359.1127374558353 843.4898339368663 363.5953053234596Q835.2441226741994 368.07787319108394 830.7615548065751 376.54494582992976Q826.2789869389508 385.0120184687757 826.2789869389508 396.96553278244045L826.2789869389508 396.96553278244045L826.2789869389508 451.94616459089417L812.1118588634962 451.94616459089417L812.1118588634962 347.35291434632705L825.6702431544586 347.35291434632705L825.6702431544586 376.04688273352707L823.4842995646912 370.6511991891645Q828.4649305287182 359.3064286599919 839.4223186495776 352.83160840675674Q850.379706770437 346.3567881535217 865.5152908666746 346.3567881535217ZM991.2208823643118 452.94229078369955L991.2208823643118 452.94229078369955Q974.8954808711121 452.94229078369955 962.5269139771117 446.08008812215127Q950.1860172551337 439.19021528858053 943.2131339054959 427.15369045884864Q936.240250555858 415.0894954570943 936.240250555858 399.53885878052114L936.240250555858 399.53885878052114Q936.240250555858 384.0158922759703 942.9087620132498 372.06237796230545Q949.5772734706416 360.1088636486407 961.2540860640826 353.21899081506996Q972.9032284855014 346.3567881535217 987.4300687972468 346.3567881535217L987.4300687972468 346.3567881535217Q1002.1782704851711 346.3567881535217 1013.6337217024331 353.02529961091335Q1025.0891729196953 359.69381106830514 1031.67467386102 371.75800607005937Q1038.2325046303222 383.8222010718137 1038.2325046303222 399.53885878052114L1038.2325046303222 399.53885878052114Q1038.2325046303222 400.5349849733265 1038.149494114255 401.64179185422137Q1038.0388134261655 402.74859873511633 1038.0388134261655 403.9384161320783L1038.0388134261655 403.9384161320783L947.0039474725609 403.9384161320783L947.0039474725609 393.36841041953215L1030.4848564640579 393.36841041953215L1024.8954817155386 397.5466063949104Q1024.8954817155386 386.2018358657377 1020.0255314396013 377.34738081857853Q1015.1279109916413 368.46525559939704 1006.7715190408849 363.48462463537015Q998.3874569181062 358.50399367134304 987.4300687972468 358.50399367134304L987.4300687972468 358.50399367134304Q976.6940420525664 358.50399367134304 968.1162887256309 363.48462463537015Q959.5385353986956 368.46525559939704 954.7792658108475 377.43039133464566Q949.9923260509771 386.3955270698943 949.9923260509771 397.96165897524594L949.9923260509771 397.96165897524594L949.9923260509771 400.1476025650133Q949.9923260509771 412.10111687867817 955.2773289072502 421.17693330201627Q960.5346615915009 430.2250795533319 969.9978604231521 435.3163912054484Q979.4610592548036 440.3800326855425 991.6359349446473 440.3800326855425L991.6359349446473 440.3800326855425Q1001.1821442923657 440.3800326855425 1009.4555257270551 437.00427169881317Q1017.7289071617442 433.6285107120837 1023.7056643185767 426.65562736244595L1023.7056643185767 426.65562736244595L1031.67467386102 435.8144543018511Q1024.7017905113821 444.17084625260753 1014.2424654869254 448.5704036041647Q1003.7831404624687 452.94229078369955 991.2208823643118 452.94229078369955ZM1083.6669270910575 451.94616459089417L1069.5274691876252 451.94616459089417L1069.5274691876252 334.2095826357003Q1069.5274691876252 320.2638159364247 1077.690169934225 311.6860626094893Q1085.8528706808247 303.1359794545763 1101.2098161532413 303.1359794545763L1101.2098161532413 303.1359794545763Q1107.1865733100738 303.1359794545763 1112.7482778865706 304.7131792598515Q1118.3376526350899 306.318049237149 1122.1284662021549 309.6938102238785L1122.1284662021549 309.6938102238785L1117.3415264422842 320.2638159364247Q1114.3531478638683 317.66281976632166 1110.3686430926466 316.3623216812702Q1106.384138321425 315.0894937682411 1101.7908897657112 315.0894937682411L1101.7908897657112 315.0894937682411Q1092.8257540304626 315.0894937682411 1088.0388142705922 320.0701247322681Q1083.279544682744 325.0507556962951 1083.279544682744 334.79065624817L1083.279544682744 334.79065624817L1083.279544682744 350.7286753330565L1083.6669270910575 357.31417627438105L1083.6669270910575 451.94616459089417ZM1115.5429652608302 359.1127374558353L1050.794762728479 359.1127374558353L1050.794762728479 347.35291434632705L1115.5429652608302 347.35291434632705L1115.5429652608302 359.1127374558353ZM1148.8025120317216 451.94616459089417L1134.6630541282893 451.94616459089417L1134.6630541282893 304.13210564738165L1148.8025120317216 304.13210564738165L1148.8025120317216 451.94616459089417ZM1202.3996352390566 451.94616459089417L1188.2601773356243 451.94616459089417L1188.2601773356243 347.35291434632705L1202.3996352390566 347.35291434632705L1202.3996352390566 451.94616459089417ZM1195.426751889419 324.2483207076463L1195.426751889419 324.2483207076463Q1191.054864709884 324.2483207076463 1188.0664861314679 321.25994212923007Q1185.0781075530517 318.2715635508138 1185.0781075530517 314.09336757543565L1185.0781075530517 314.09336757543565Q1185.0781075530517 309.8875014280351 1188.0664861314679 307.0098035377083Q1191.054864709884 304.13210564738165 1195.426751889419 304.13210564738165L1195.426751889419 304.13210564738165Q1199.8263092409761 304.13210564738165 1202.8146878193922 306.89912284961883Q1205.8030663978084 309.6938102238785 1205.8030663978084 313.87200619925665L1205.8030663978084 313.87200619925665Q1205.8030663978084 318.2715635508138 1202.8976983354594 321.25994212923007Q1200.0200004451326 324.2483207076463 1195.426751889419 324.2483207076463ZM1241.8573005429594 451.94616459089417L1225.919281458073 451.94616459089417L1270.1362163498238 394.55822781649414L1269.9425251456673 401.5311111661319L1227.9115338436839 347.35291434632705L1243.8495529285701 347.35291434632705L1278.2989170964238 392.17859302257006L1272.3221599395913 391.98490181841345L1306.7991942794672 347.35291434632705L1322.3498309560405 347.35291434632705L1279.9037870737213 402.13985495062406L1280.0974782778778 394.55822781649414L1324.7294657499642 451.94616459089417L1308.5977554609212 451.94616459089417L1272.1284687354346 404.1321073362349L1277.7178434839539 404.9345423248837L1241.8573005429594 451.94616459089417Z " fill="#ffb703" transform="matrix(0.6605122065751926,0,0,0.6605122065751927,0,50.23658356967913)"/></g></svg>